Contact (1997) [BDRip720p][Nautilus-BT]
Join www.nautilus-bt.org

[img]http://img694.imageshack.us/img694/7360/5891front.jpg[/img]

Link IMDb : http://www.imdb.com/title/tt0118884/

Dr. Ellie Arroway, after years of searching, finds conclusive radio proof of intelligent aliens, who send plans for a mysterious machine.


Italian title : Contact
Original title : Contact
Release date : 1997
Genre : science fiction
Country : USA
Screenplay by : James V. Hart , Michael Goldenberg
Directed by : Robert Zemeckis
Story by : Carl Sagan , Ann Druyan


Languages : Italian - English
Subtitle : Italian
Subtitle deaf : Italian - English
Subtitle forced : Italian
Chapters : yes


[img]http://img840.imageshack.us/img840/3776/contactquantanal.png[/img]

General
Complete name                    : Contact (1997) [BDRip720p Ita-Eng] by Pitt@Sk8.mkv
Format                           : Matroska
File size                        : 4.37 GiB
Duration                         : 2h 29mn
Overall bit rate                 : 4 180 Kbps
Encoded date                     : UTC 2011-01-19 20:36:12
Writing application              : mkvmerge v4.4.0 ('Die Wiederkehr') built on Oct 31 2010 21:52:48
Writing library                  : libebml v1.0.0 + libmatroska v1.0.0

Video
ID                               : 1
Format                           : AVC
Format/Info                      : Advanced Video Codec
Format profile                   : High@L4.1
Format settings, CABAC           : Yes
Format settings, ReFrames        : 3 frames
Muxing mode                      : Container profile=Unknown@4.1
Codec ID                         : V_MPEG4/ISO/AVC
Duration                         : 2h 29mn
Bit rate mode                    : Variable
Bit rate                         : 3 303 Kbps
Maximum bit rate                 : 40.0 Mbps
Width                            : 1 280 pixels
Height                           : 534 pixels
Display aspect ratio             : 2.35:1
Frame rate                       : 23.976 fps
Color space                      : YUV
Chroma subsampling               : 4:2:0
Bit depth                        : 8 bits
Scan type                        : Progressive
Bits/(Pixel*Frame)               : 0.202
Stream size                      : 3.38 GiB (77%)
Title                            : BDRip720p by Pitt@Sk8
Writing library                  : x264 core 112 r1867 22bfd31
Encoding settings                : cabac=1 / ref=3 / deblock=1:0:0 / analyse=0x3:0x133 / me=hex / subme=7 / psy=1 / psy_rd=1.00:0.00 / mixed_ref=1 / me_range=16 / chroma_me=1 / trellis=1 / 8x8dct=1 / cqm=0 / deadzone=21,11 / fast_pskip=1 / chroma_qp_offset=-2 / threads=6 / sliced_threads=0 / slices=4 / nr=0 / decimate=1 / interlaced=0 / constrained_intra=0 / bframes=3 / b_pyramid=1 / b_adapt=1 / b_bias=0 / direct=1 / weightb=1 / open_gop=2 / weightp=2 / keyint=240 / keyint_min=23 / scenecut=40 / intra_refresh=0 / rc_lookahead=40 / rc=2pass / mbtree=1 / bitrate=3303 / ratetol=1.0 / qcomp=0.60 / qpmin=10 / qpmax=51 / qpstep=4 / cplxblur=20.0 / qblur=0.5 / vbv_maxrate=40000 / vbv_bufsize=40000 / nal_hrd=vbr / ip_ratio=1.40 / aq=1:1.00

Audio #1
ID                               : 2
Format                           : AC-3
Format/Info                      : Audio Coding 3
Mode extension                   : CM (complete main)
Codec ID                         : A_AC3
Duration                         : 2h 29mn
Bit rate mode                    : Constant
Bit rate                         : 640 Kbps
Channel(s)                       : 6 channels
Channel positions                : Front: L C R, Side: L R, LFE
Sampling rate                    : 48.0 KHz
Bit depth                        : 16 bits
Stream size                      : 685 MiB (15%)
Title                            : Italiano AC3 5.1 640 kbps - Pitt@Sk8
Language                         : Italian

Audio #2
ID                               : 3
Format                           : AC-3
Format/Info                      : Audio Coding 3
Mode extension                   : CM (complete main)
Codec ID                         : A_AC3
Duration                         : 2h 29mn
Bit rate mode                    : Constant
Bit rate                         : 224 Kbps
Channel(s)                       : 6 channels
Channel positions                : Front: L C R, Side: L R, LFE
Sampling rate                    : 48.0 KHz
Bit depth                        : 16 bits
Stream size                      : 240 MiB (5%)
Title                            : English AC3 5.1 224 kbps - Pitt@Sk8
Language                         : English

Text #1
ID                               : 4
Format                           : UTF-8
Codec ID                         : S_TEXT/UTF8
Codec ID/Info                    : UTF-8 Plain Text
Title                            : Cartelli - Italiano
Language                         : Italian

Text #2
ID                               : 5
Format                           : VobSub
Codec ID                         : S_VOBSUB
Codec ID/Info                    : The same subtitle format used on DVDs
Title                            : Sottotitoli - Italiano
Language                         : Italian

Text #3
ID                               : 6
Format                           : VobSub
Codec ID                         : S_VOBSUB
Codec ID/Info                    : The same subtitle format used on DVDs
Title                            : Sottotitoli - Italiano per non udenti
Language                         : Italian

Text #4
ID                               : 7
Format                           : VobSub
Codec ID                         : S_VOBSUB
Codec ID/Info                    : The same subtitle format used on DVDs
Title                            : Subtitle English [deaf]
Language                         : English

Menu
00:00:00.000                     : en:Capitolo 01- Pitt@Sk8
00:03:52.065                     : en:Capitolo 02- Pitt@Sk8
00:07:28.657                     : en:Capitolo 03- Pitt@Sk8
00:11:19.554                     : en:Capitolo 04- Pitt@Sk8
00:13:52.040                     : en:Capitolo 05- Pitt@Sk8
00:16:07.383                     : en:Capitolo 06- Pitt@Sk8
00:20:58.382                     : en:Capitolo 07- Pitt@Sk8
00:25:18.851                     : en:Capitolo 08- Pitt@Sk8
00:28:42.638                     : en:Capitolo 09- Pitt@Sk8
00:31:11.036                     : en:Capitolo 10- Pitt@Sk8
00:33:46.816                     : en:Capitolo 11- Pitt@Sk8
00:43:48.417                     : en:Capitolo 12- Pitt@Sk8
00:47:11.454                     : en:Capitolo 13- Pitt@Sk8
00:49:34.346                     : en:Capitolo 14- Pitt@Sk8
00:51:52.067                     : en:Capitolo 15- Pitt@Sk8
00:55:28.158                     : en:Capitolo 16- Pitt@Sk8
00:58:47.315                     : en:Capitolo 17- Pitt@Sk8
01:01:22.220                     : en:Capitolo 18- Pitt@Sk8
01:03:51.786                     : en:Capitolo 19- Pitt@Sk8
01:10:52.707                     : en:Capitolo 20- Pitt@Sk8
01:12:34.433                     : en:Capitolo 21- Pitt@Sk8
01:15:02.039                     : en:Capitolo 22- Pitt@Sk8
01:17:32.565                     : en:Capitolo 23- Pitt@Sk8
01:19:43.362                     : en:Capitolo 24- Pitt@Sk8
01:22:55.137                     : en:Capitolo 25- Pitt@Sk8
01:28:17.667                     : en:Capitolo 26- Pitt@Sk8
01:34:01.261                     : en:Capitolo 27- Pitt@Sk8
01:36:02.423                     : en:Capitolo 28- Pitt@Sk8
01:38:48.172                     : en:Capitolo 29- Pitt@Sk8
01:41:42.930                     : en:Capitolo 30- Pitt@Sk8
01:45:28.739                     : en:Capitolo 31- Pitt@Sk8
01:50:27.412                     : en:Capitolo 32- Pitt@Sk8
01:54:27.360                     : en:Capitolo 33- Pitt@Sk8
01:59:09.142                     : en:Capitolo 34- Pitt@Sk8
02:01:28.948                     : en:Capitolo 35- Pitt@Sk8
02:04:58.908                     : en:Capitolo 36- Pitt@Sk8
02:07:57.712                     : en:Capitolo 37- Pitt@Sk8
02:09:42.191                     : en:Capitolo 38- Pitt@Sk8
02:13:14.153                     : en:Capitolo 39- Pitt@Sk8
02:16:05.532                     : en:Capitolo 40- Pitt@Sk8
02:18:16.955                     : en:Capitolo 41- Pitt@Sk8
02:19:04.878                     : en:Capitolo 42- Pitt@Sk8


[img]http://img256.imageshack.us/img256/5248/contact1997bdrip720pita.jpg[/img]

[img]http://img94.imageshack.us/img94/5248/contact1997bdrip720pita.jpg[/img]

[img]http://img202.imageshack.us/img202/5248/contact1997bdrip720pita.jpg[/img]

[img]http://img254.imageshack.us/img254/5248/contact1997bdrip720pita.jpg[/img]

[img]http://img709.imageshack.us/img709/5248/contact1997bdrip720pita.jpg[/img]

[img]http://img843.imageshack.us/img843/5248/contact1997bdrip720pita.jpg[/img]

Join www.nautilus-bt.org
